<svg xmlns="http://www.w3.org/2000/svg" version="1.1" xmlns:xlink="http://www.w3.org/1999/xlink" width="30" height="30" x="0" y="0" viewBox="0 0 330 330" style="enable-background:new 0 0 512 512" xml:space="preserve"><g><path d="M315 150H51.213l49.393-49.394c5.858-5.857 5.858-15.355 0-21.213-5.857-5.857-15.355-5.857-21.213 0l-75 75c-5.858 5.857-5.858 15.355 0 21.213l75 75A14.956 14.956 0 0 0 90 255a14.95 14.95 0 0 0 10.606-4.394c5.858-5.857 5.858-15.355 0-21.213L51.213 180H315c8.284 0 15-6.716 15-15s-6.716-15-15-15z" fill="#000000" opacity="1" data-original="#000000"></path></g></svg>